<?xml version="1.0" encoding="UTF-8" standalone="no"?>
<svg
   xmlns:dc="http://purl.org/dc/elements/1.1/"
   xmlns:cc="http://creativecommons.org/ns#"
   xmlns:rdf="http://www.w3.org/1999/02/22-rdf-syntax-ns#"
   xmlns:svg="http://www.w3.org/2000/svg"
   xmlns="http://www.w3.org/2000/svg"
   id="svg8"
   version="1.1"
   viewBox="0 0 210 297"
   height="297mm"
   width="210mm">
  <defs
     id="defs2" />
  <metadata
     id="metadata5">
    <rdf:RDF>
      <cc:Work
         rdf:about="">
        <dc:format>image/svg+xml</dc:format>
        <dc:type
           rdf:resource="http://purl.org/dc/dcmitype/StillImage" />
        <dc:title></dc:title>
      </cc:Work>
    </rdf:RDF>
  </metadata>
  <g
     id="layer1">
    <path
       id="path21"
       d="m 39.062814,120.98242 c -1.48118,-0.45636 -3.04091,-1.91971 -3.77362,-3.54043 -0.4325,-0.95669 -0.54456,-1.73387 -0.53674,-3.72266 0.0113,-2.88746 0.65398,-4.96687 2.01348,-6.51526 0.95806,-1.09117 0.88188,-1.37013 -1.06517,-3.90067 l -1.24823,-1.62229 -0.16776,1.37428 c -0.35092,2.87481 -2.15119,5.11109 -4.97977,6.18587 -4.11317,1.56287 -7.98611,-0.67493 -8.04353,-4.64759 l -0.0211,-1.45767 h -1.65224 c -3.16487,0 -5.85339,-1.53501 -7.07644,-4.040285 -0.92795,-1.90081 -1.10347,-3.48348 -0.58436,-5.26915 0.4823,-1.65906 2.096,-3.67461 3.53168,-4.41116 l 0.92084,-0.47242 -0.70929,-0.46474 c -0.85427,-0.55975 -1.70947,-2.33629 -1.71746,-3.56779 -0.003,-0.49244 0.13836,-1.38541 0.31457,-1.98438 0.43638,-1.4833 2.91273,-3.96936 4.39674,-4.41398 1.06368,-0.31869 1.10371,-0.37032 1.10371,-1.42336 0,-1.52185 0.97286,-3.33023 2.14211,-3.98185 0.94041,-0.52408 0.94757,-0.54103 0.61544,-1.45629 -0.48114,-1.32592 -0.43837,-2.61944 0.12685,-3.83646 1.23638,-2.662104 3.71652,-3.793766 6.37742,-2.909955 0.74569,0.247677 1.37785,0.408427 1.4048,0.35722 0.027,-0.0512 0.39545,-0.78616 0.81888,-1.633228 1.23824,-2.477112 3.06156,-3.447733 5.5867,-2.974015 1.89906,0.356267 4.38397,3.773001 4.77501,6.565608 0.23793,1.69913 0.41387,2.03779 0.65242,1.25583 0.28215,-0.92487 0.30135,-3.37943 0.0278,-3.54852 -0.65699,-0.40604 -1.51651,-9.0922 -1.2909,-13.045628 0.2456,-4.303874 1.49637,-8.563476 3.3019,-11.244927 0.41952,-0.623044 1.08805,-1.810533 1.48562,-2.638864 2.27657,-4.743152 8.25735,-8.286949 21.58303,-12.788602 2.26545,-0.765312 7.1551,-2.486615 10.86588,-3.825118 10.63554,-3.836313 15.43815,-5.047363 23.833586,-6.01 5.82206,-0.667564 27.16436,-0.664331 33.581,0.0051 8.50431,0.88722 14.41921,2.193703 21.84962,4.826146 2.31651,0.820692 7.72418,2.712101 12.01704,4.203134 8.49524,2.950633 11.18658,4.012046 14.89837,5.875644 4.84769,2.43391 7.55928,4.779854 8.94237,7.736562 0.44968,0.961282 0.99209,2.045441 1.20538,2.409243 3.27231,5.581603 4.02528,11.526253 2.75005,21.71155 -0.39813,3.179882 -1.86583,5.01 -4.58313,5.71486 -1.3339,0.34601 -1.71997,0.28261 -17.49717,-2.873555 -18.32829,-3.666498 -17.87894,-3.520149 -19.27576,-6.277901 -0.88932,-1.75578 -0.90077,-2.520812 -0.0977,-6.530755 0.34643,-1.729883 0.72744,-4.812115 0.8467,-6.849407 0.34133,-5.831126 0.38444,-5.521603 -0.96035,-6.896097 -0.64772,-0.662022 -1.66767,-1.514833 -2.26657,-1.895131 l -1.0889,-0.691452 -0.17211,-2.239071 c -0.0947,-1.231487 -0.36429,-2.644055 -0.59917,-3.139038 -0.86258,-1.817753 -3.75346,-2.790775 -6.56028,-2.208083 -1.66984,0.34666 -3.21975,1.484387 -3.49022,2.562048 -0.10976,0.437303 -0.29203,0.598085 -0.56101,0.494866 -0.71919,-0.275979 -7.28049,-1.410001 -10.25191,-1.771888 -3.89675,-0.474583 -20.12107,-0.484254 -23.94479,-0.01426 -1.52797,0.187807 -4.13629,0.579109 -5.79626,0.869564 l -3.018136,0.528098 -0.68603,-0.640922 c -2.1432,-2.00229 -6.23942,-2.304767 -8.58579,-0.634005 -1.0391,0.739907 -1.74468,2.40755 -1.75172,4.140234 -0.006,1.398628 -0.0406,1.463376 -1.62012,3.004164 -1.08445,1.057847 -1.85339,2.108449 -2.34267,3.200773 l -0.72835,1.626045 0.228,4.630208 c 0.12539,2.546615 0.40568,5.506146 0.62287,6.576738 0.54353,2.679324 0.50668,4.60453 -0.1111,5.803074 -0.60623,1.176129 -2.01398,2.571732 -2.94966,2.924199 -0.37262,0.14037 -3.46825,0.80894 -6.87916,1.485718 -3.41091,0.676775 -6.98221,1.398833 -7.93622,1.604573 -6.92937,1.494383 -16.72951,3.347623 -17.73845,3.354413 -0.66922,0.004 -1.4661,-0.071 -1.77085,-0.16768 -0.49661,-0.15762 -0.61111,0.0156 -1.1038,1.66995 -0.5548,1.86293 -1.93049,4.01613 -3.20788,5.02093 -0.36639,0.2882 -1.01594,1.07737 -1.44345,1.75369 -0.85672,1.35538 -2.59511,2.6449 -4.11858,3.05513 -0.81071,0.2183 -1.09399,0.4879 -1.59061,1.51377 -0.33232,0.68649 -1.09519,1.7263 -1.69527,2.31069 -0.60007,0.58438 -1.42054,1.56147 -1.82326,2.1713 l -0.73222,1.10879 0.43782,1.92492 c 0.24079,1.05871 0.41131,2.65584 0.37892,3.54918 -0.0551,1.51997 0.0203,1.75131 1.17447,3.60308 0.67834,1.08836 1.23642,2.0879 1.24017,2.2212 0.004,0.13331 0.46124,0.45158 1.01664,0.70727 1.34273,0.61816 3.22274,2.505865 4.56929,4.588015 0.60253,0.93168 1.16823,1.68972 1.25711,1.68454 0.0889,-0.005 0.87597,-0.18192 1.74909,-0.39274 0.87313,-0.21083 1.95055,-0.38518 2.39427,-0.38745 0.7602,-0.004 0.80074,-0.0558 0.70232,-0.89876 -0.15845,-1.35729 0.4134,-3.666325 1.21431,-4.903205 0.487,-0.7521 1.16195,-1.3243 2.10918,-1.78811 1.25776,-0.61586 1.60453,-0.66824 3.57188,-0.53946 1.19838,0.0784 2.44677,0.22623 2.77419,0.32841 0.4876,0.15218 0.59531,0.0851 0.59531,-0.37091 0,-0.71068 0.26211,-0.87021 9.78958,-5.95846 5.52566,-2.95103 8.06391,-4.45259 8.691,-5.14135 2.71736,-2.98462 8.91602,-18.374127 11.6883,-29.018746 1.76649,-6.782742 2.4327,-11.460464 2.79152,-19.600323 0.18954,-4.299784 0.34814,-4.805641 1.78054,-5.679028 1.1299,-0.688948 3.864,-0.697161 5.36351,-0.01611 1.38915,0.630928 1.9643,1.800254 1.9643,3.9936 v 1.636916 l 0.99219,-0.153955 c 0.5457,-0.08468 3.790156,-0.35773 7.209896,-0.606791 8.87449,-0.646329 24.06151,-0.63954 30.86633,0.01381 2.78821,0.267697 5.2715,0.505042 5.51844,0.527431 0.38271,0.0347 0.46395,-0.287711 0.55057,-2.184951 0.0617,-1.352044 0.254,-2.458241 0.48985,-2.818191 0.95877,-1.463259 5.09998,-1.918364 6.69763,-0.736047 2.77266,9.092146 2.48126,22.504976 5.53646,32.238231 1.90334,6.002444 7.16477,17.823144 9.5391,21.431254 l 1.04467,1.5875 8.57379,4.5971 c 4.71558,2.52841 8.78214,4.77929 9.0368,5.00195 0.75105,0.65668 0.64255,3.25959 -0.17552,4.21067 l -0.63854,0.74236 -61.63982,0.0678 c -54.297276,0.0597 -61.678876,0.114875 -61.967806,0.463015 -0.45672,0.55031 -1.22634,0.49332 -2.34864,-0.17389 l -0.95727,-0.569105 0.60266,0.635245 0.60266,0.63526 h 62.854096 62.8541 l 0.63855,-0.74236 0.63855,-0.742355 v 7.651585 7.65158 l -0.69111,0.69112 c -0.38011,0.38011 -1.12425,0.7833 -1.65365,0.89597 -0.52939,0.11267 -7.68956,0.20486 -15.91149,0.20486 -13.79252,0 -15.01513,-0.0362 -15.80437,-0.4675 -0.8511,-0.46514 -1.65813,-1.64775 -1.65813,-2.42978 0,-0.36777 -2.94441,-0.41001 -28.575,-0.41001 H 90.941134 v 0.65728 c 0,1.1163 -1.26202,2.21997 -2.88038,2.51898 -1.92276,0.35525 -28.3591,0.33756 -29.91056,-0.02 -0.9759,-0.22492 -1.21174,-0.20158 -1.40221,0.13877 -0.2804,0.50104 -1.59197,1.20384 -2.24006,1.20032 -0.86981,-0.005 -3.10782,-1.23608 -4.13947,-2.27755 -1.28433,-1.29655 -2.82338,-3.87102 -3.91199,-6.54386 -0.46443,-1.1403 -1.00573,-2.13517 -1.2029,-2.21084 -0.46868,-0.17984 -3.02475,0.14238 -3.5104,0.44253 -0.31044,0.19186 -0.16046,0.69702 0.84117,2.83321 1.45801,3.10955 2.05472,5.28171 2.05472,7.4797 0,2.00597 -0.52684,3.1053 -1.72887,3.60754 -1.10906,0.46339 -2.26658,0.45322 -3.84731,-0.0338 z m 2.66689,-2.36966 c 0.77841,-0.93792 0.14953,-3.54042 -2.10951,-8.72989 l -0.57589,-1.32291 -0.63626,1.05373 c -1.97383,3.26893 -1.12117,7.52184 1.79638,8.96001 1.06972,0.5273 1.11903,0.52856 1.52528,0.0391 z m 13.03189,-4.51578 c 0.20768,-1.08645 -0.3192,-2.6475 -1.26751,-3.7554 -0.85605,-1.00009 -3.85717,-2.83188 -4.35974,-2.66105 -0.48689,0.1655 1.83763,4.39856 3.16208,5.75832 1.46104,1.49999 2.26329,1.71417 2.46517,0.65813 z m 0.46073,-10.41055 v -4.476645 l -1.35062,-0.4486 c -0.89137,-0.29607 -1.85084,-0.40713 -2.82172,-0.32661 -1.27396,0.10564 -1.5872,0.24869 -2.33755,1.06746 -0.97999,1.069345 -1.35067,2.483885 -1.00151,3.821855 0.21272,0.81516 0.40365,0.96034 1.98497,1.50939 1.69176,0.58738 4.34524,2.14729 5.00507,2.94233 0.17686,0.21311 0.36652,0.38748 0.42146,0.38748 0.0549,0 0.0999,-2.0145 0.0999,-4.47666 z m -25.79687,2.54108 c 1.54392,-0.84315 2.37048,-2.60682 2.12869,-4.54208 -0.17004,-1.36097 -0.22788,-1.45151 -1.02218,-1.60001 -1.82898,-0.341935 -5.12547,1.07798 -6.15678,2.65195 -1.00575,1.53498 -0.63667,3.51644 0.76621,4.11346 0.85163,0.36243 3.07005,0.0396 4.28406,-0.62332 z m -7.09367,-6.1486 c 1.48863,-0.603445 3.67726,-2.415085 4.53786,-3.756215 0.45981,-0.71654 0.83601,-1.42736 0.83601,-1.57959 0,-0.15222 -0.49172,-0.72102 -1.09272,-1.26398 -3.08059,-2.78313 -8.03147,-3.30624 -10.67423,-1.12785 -2.15277,1.77449 -2.27402,4.34764 -0.30678,6.51039 1.54032,1.693405 4.29196,2.193325 6.69986,1.217245 z m 5.76212,-10.105925 c -0.28778,-1.73164 -0.2752,-1.72207 -1.46607,-1.11453 l -1.08826,0.55519 1.14918,0.75519 c 0.63206,0.41535 1.24389,0.76445 1.35962,0.77576 0.11574,0.0113 0.13622,-0.42591 0.0455,-0.97161 z m -2.77809,-3.52154 c 1.50642,-0.83821 1.59303,-1.19765 0.33698,-1.3985 -1.36989,-0.21906 -3.32655,-1.56023 -4.34478,-2.9781 -0.4597,-0.64011 -1.00993,-1.16384 -1.22275,-1.16384 -1.24744,0 -3.49211,2.5316 -3.49211,3.93849 0,0.76667 1.10266,1.76652 2.3289,2.11176 0.53812,0.1515 1.93577,0.24404 3.1059,0.20565 1.67444,-0.055 2.37461,-0.20731 3.28786,-0.71546 z m 3.92555,-5.19211 c 0.10413,-1.43184 -0.64097,-2.90101 -2.12189,-4.1839 -2.29722,-1.99002 -3.8613,-2.21127 -4.41446,-0.62446 -0.49389,1.41677 -0.37453,1.64049 1.28779,2.41392 1.08335,0.50405 1.96621,1.18711 2.83497,2.1934 1.57144,1.82018 2.29148,1.88016 2.41359,0.20104 z m 3.17286,-6.50582 c -0.0956,-1.49004 -0.27893,-2.1616 -0.81244,-2.97657 -0.37893,-0.57882 -0.76832,-1.37854 -0.86532,-1.77715 -0.40729,-1.67372 -3.00418,-2.98656 -4.60006,-2.32553 -2.05443,0.85097 -1.27002,4.23057 1.40987,6.07438 0.6137,0.42224 1.28757,0.97529 1.49748,1.22901 0.36377,0.43969 2.7694,1.69199 3.26072,1.69743 0.12828,0.001 0.17766,-0.86328 0.10975,-1.92157 z m 4.17051,1.28246 c 0.49536,-0.36372 0.48715,-0.3872 -0.23124,-0.66145 -0.9883,-0.3773 -0.97496,-0.38246 -0.97496,0.37711 0,0.74387 0.43932,0.84743 1.2062,0.28434 z m 2.33737,-3.48104 c 0.28448,-0.74134 0.16488,-3.90757 -0.19906,-5.27002 -0.51115,-1.913508 -1.41771,-3.549181 -2.15274,-3.884082 -1.44771,-0.659623 -3.57302,1.427069 -3.57302,3.508102 0,1.89 2.14208,5.28665 3.70417,5.87361 0.8385,0.31508 2.06046,0.18983 2.22065,-0.22761 z"
       style="fill:#000000;stroke-width:0.26458335" />
    <circle
       r="30.616074"
       cy="67.757431"
       cx="119.62947"
       id="path16"
       style="opacity:1;vector-effect:none;fill:#ffffff;fill-opacity:1;stroke:none;stroke-width:0.35801107;stroke-linecap:butt;stroke-linejoin:miter;stroke-miterlimit:4;stroke-dasharray:none;stroke-dashoffset:0;stroke-opacity:1;paint-order:markers fill stroke" />
    <circle
       style="opacity:1;vector-effect:none;fill:#000000;fill-opacity:1;stroke:none;stroke-width:0.34033149;stroke-linecap:butt;stroke-linejoin:miter;stroke-miterlimit:4;stroke-dasharray:none;stroke-dashoffset:0;stroke-opacity:1;paint-order:markers fill stroke"
       id="circle828"
       cx="119.62947"
       cy="67.757431"
       r="29.104168" />
    <circle
       r="7.1815486"
       cy="47.15773"
       cx="119.62947"
       id="circle830"
       style="opacity:1;vector-effect:none;fill:#ffffff;fill-opacity:1;stroke:none;stroke-width:0.08397791;stroke-linecap:butt;stroke-linejoin:miter;stroke-miterlimit:4;stroke-dasharray:none;stroke-dashoffset:0;stroke-opacity:1;paint-order:markers fill stroke" />
    <circle
       transform="rotate(45)"
       style="opacity:1;vector-effect:none;fill:#ffffff;fill-opacity:1;stroke:none;stroke-width:0.08397791;stroke-linecap:butt;stroke-linejoin:miter;stroke-miterlimit:4;stroke-dasharray:none;stroke-dashoffset:0;stroke-opacity:1;paint-order:markers fill stroke"
       id="circle834"
       cx="132.50255"
       cy="-57.27877"
       r="7.1815486" />
    <circle
       r="7.1815486"
       cy="111.90285"
       cx="36.67907"
       id="circle836"
       style="opacity:1;vector-effect:none;fill:#ffffff;fill-opacity:1;stroke:none;stroke-width:0.08397791;stroke-linecap:butt;stroke-linejoin:miter;stroke-miterlimit:4;stroke-dasharray:none;stroke-dashoffset:0;stroke-opacity:1;paint-order:markers fill stroke"
       transform="rotate(-45)" />
    <circle
       transform="rotate(-90)"
       style="opacity:1;vector-effect:none;fill:#ffffff;fill-opacity:1;stroke:none;stroke-width:0.08397791;stroke-linecap:butt;stroke-linejoin:miter;stroke-miterlimit:4;stroke-dasharray:none;stroke-dashoffset:0;stroke-opacity:1;paint-order:markers fill stroke"
       id="circle838"
       cx="-67.757431"
       cy="99.02977"
       r="7.1815486" />
    <circle
       r="7.1815486"
       cy="16.07937"
       cx="-132.50255"
       id="circle840"
       style="opacity:1;vector-effect:none;fill:#ffffff;fill-opacity:1;stroke:none;stroke-width:0.08397791;stroke-linecap:butt;stroke-linejoin:miter;stroke-miterlimit:4;stroke-dasharray:none;stroke-dashoffset:0;stroke-opacity:1;paint-order:markers fill stroke"
       transform="rotate(-135)" />
    <circle
       transform="scale(-1)"
       style="opacity:1;vector-effect:none;fill:#ffffff;fill-opacity:1;stroke:none;stroke-width:0.08397791;stroke-linecap:butt;stroke-linejoin:miter;stroke-miterlimit:4;stroke-dasharray:none;stroke-dashoffset:0;stroke-opacity:1;paint-order:markers fill stroke"
       id="circle842"
       cx="-119.62947"
       cy="-88.357132"
       r="7.1815486" />
  </g>
</svg>
